<svg height="483pt" preserveAspectRatio="xMidYMid meet" viewBox="0 0 483 483" width="483pt" xmlns="http://www.w3.org/2000/svg"><g transform="matrix(.1 0 0 -.1 0 483)"><path d="m0 2415v-2415h2415 2415v2415 2415h-2415-2415zm1530 2035c0-5-2-10-4-10-3 0-8 5-11 10-3 6-1 10 4 10 6 0 11-4 11-10zm-420-94c0-3-4-8-10-11-5-3-10-1-10 4 0 6 5 11 10 11 6 0 10-2 10-4zm190-40c0-3-4-8-10-11-5-3-10-1-10 4 0 6 5 11 10 11 6 0 10-2 10-4zm488-8c-6-18-28-21-28-4 0 9 7 16 16 16s14-5 12-12zm49-20c16-20 24-66 13-73-14-9-3-25 17-25 9 0 13 6 9 15-3 8-1 15 4 15 6 0 10-9 10-20 0-26-32-42-62-32-13 5-34 6-48 2-23-6-60 7-60 21 0 3 21 4 48 2 40-4 49-2 60 17 15 25 7 60-14 60-8 0-14 7-14 15 0 18 24 20 37 3zm-127-8c0-5-4-10-10-10-5 0-10 5-10 10 0 6 5 10 10 10 6 0 10-4 10-10zm-434-27c-10-10-19 5-10 18 6 11 8 11 12 0 2-7 1-15-2-18zm124 11c5-5-20-24-32-24-4 0-12 10-19 21-10 20-9 21 17 15 16-4 31-10 34-12zm550-34c0-10-7-21-16-24-23-9-26-3-14 28 11 29 30 27 30-4zm-485 10c3-5 1-10-4-10-6 0-11 5-11 10 0 6 2 10 4 10 3 0 8-4 11-10zm597-69c21-8 35-8 42-1 5 5 22 10 37 10 32 0 59 23 59 51 0 29 13 23 34-16 26-47 55-46 96 3 19 23 33 32 36 25 19-44 40-56 112-58 57-3 77-8 104-28 40-30 74-41 83-27 9 15 25 12 25-5 0-8 11-17 25-21 13-3 29-12 35-19 7-8 37-19 68-25 31-7 65-16 75-22 11-5 43-13 72-18s71-20 92-33 61-32 90-41c29-10 67-28 85-41s51-34 73-46 65-45 96-73c103-95 151-136 160-136 5 0 9-4 9-9 0-6 20-29 45-52s64-74 88-113c202-329 271-475 265-559-1-18 1-38 5-44 12-20-18-34-39-18-10 8-27 15-36 15-26 0-22 20 3 20 18 0 19 2 9 15-10 12-10 15 4 15 18 0 20 8 6 30-6 10-22 14-47 11-21-1-40-4-42-6s5-16 16-32c10-15 26-44 35-65 20-44 50-56 84-33 14 9 27 15 29 13 1-2 10-17 18-34 12-23 13-34 4-43-16-16-32-14-18 3 14 16 7 22-31 24-31 2-45-26-28-58 9-17 14-18 30-8 10 7 21 10 22 8 13-19 48-103 48-115 0-21 18-19 23 3 4 16 5 16 12-2 5-12 2-30-9-51-15-28-17-47-11-132 6-84 5-101-9-112-20-17-21-51-1-51 25 0 17-19-12-27-16-4-33-6-39-5s-17-4-23-12c-17-21 23-43 45-25 20 16 19-8-2-49-20-42-35-50-21-12 13 34 11 38-29 46-26 5-31 2-45-30-16-34-16-36 2-36 11 0 19-7 19-15s-5-15-11-15c-5 0-7-5-3-11 4-7 9-7 13-2 9 14 41 24 41 12 0-13-41-69-51-69-4 0-5 8-2 18 5 22-23 26-32 4-6-17 2-32 19-32 16 0 27-35 19-57-5-14-8-13-20 3-7 10-13 14-14 8 0-5-4 0-8 10-7 19-8 19-31-4l-24-24-14 22c-15 22-42 30-42 12 0-5 7-10 15-10s15-7 15-15 10-25 21-36c20-20 21-22 4-32-12-6-14-12-6-16 8-5 5-13-9-26-22-20-27-7-10 26 9 15 7 21-7 26-26 10-43 35-37 56 4 12 0 20-13 23-10 3-25 20-34 37-11 22-25 34-45 37-20 4-29 11-30 25-2 40-4 45-20 45-10 0-14 6-10 15 7 19-8 19-24 0-20-25-100-17-100 9 0 7 6 20 13 30 13 18 15 18 40 2 20-14 30-15 46-7 13 7 22 8 26 1 3-5 17-10 30-10s27-5 30-10c4-6 10-8 15-5 4 3 16 2 26-2 16-6 16-7-2-14-17-7-15-9 13-20 18-7 34-20 35-28 2-8 16-14 36-15 39-1 37 14-6 34-41 20-40 28 4 32 24 2 42 10 51 25 13 20 12 23-12 39-25 16-28 16-55 1-15-9-35-17-44-17-20 0-21 26-1 34 8 3 15 10 15 15 0 6-7 8-15 5-20-8-45 13-38 32 8 22-15 17-27-6-12-22-35-26-45-9-4 5 1 19 11 30 16 17 16 19 1 19-10 0-17 7-17 15 0 16-16 20-24 6-7-11-65-23-78-15-5 3-4 11 3 20 9 11 8 14-7 14-11 0-30 3-44 7-21 5-23 4-14-8 9-11 8-17-4-29-14-13-15-12-9 3s0 16-53 14c-32-2-66-9-74-17-19-15-21-40-3-40 9 0 9-2-1-8-13-9-6-42 9-42 16 0 10-30-6-31-8-1-20-2-27-3s-15 10-19 24l-7 25-1-24c-1-14-15-36-32-52l-31-27 37-18c27-13 39-14 48-5 6 6 20 11 30 11s21 9 24 20c5 20 23 28 23 11 0-5 12-11 27-13 14-2 28-9 31-17 3-9-2-11-17-6-25 8-27 0-6-22 14-14 18-14 34 1 22 20 34 8 26-26-3-13-2-36 4-51 7-17 7-28 1-32s-10-19-10-35c0-19-7-33-20-40-11-6-20-15-20-20 0-6 9-10 20-10 25 0 25-6 1-35-16-22-20-23-39-9-18 12-26 12-66-6-26-11-49-26-52-35-4-10-14-13-30-9-31 8-31-3 1-28 18-14 25-29 25-54 0-37-10-43-30-19-8 10-9 15-2 15 15 0 3 31-17 47-9 7-26 13-39 13-20 0-21 3-12 20 9 16 8 20-5 20-8 0-15 4-15 9 0 15-56 3-102-22-25-13-56-27-69-32-20-6-21-8-6-12 9-2 17-11 17-19 0-10-7-13-25-8-16 4-33 1-43-7-35-29-60-36-157-49-55-7-125-20-155-30l-55-17 44-20c24-11 39-23 33-27-10-6-74 23-80 37-13 28-122-29-122-63 0-15-19-12-36 5-14 14-11 19 9 16 16-3 47 20 47 34 0 9 10 15 24 15s28 4 31 10c3 5 15 10 26 10 10 0 19 4 19 8 0 5 13 7 28 4 18-2 33 2 41 12s29 16 55 16c105 0 223 40 258 88 7 10 33 24 58 32 25 7 68 25 95 40 44 24 58 27 116 23 88-7 175 12 191 40 6 12 17 27 24 34s12 34 12 59c0 38-5 53-28 76-39 39-124 35-172-9-10-9-40-24-66-32-35-12-48-22-50-38-3-17-10-21-32-21-16 1-36-4-44-11s-30-12-48-11c-18 0-63 2-100 3s-72 7-79 15c-7 6-18 12-24 12s-22 11-35 25c-29 31-72 33-100 5-11-11-23-19-28-18-4 1-16-1-27-4-11-4-37-9-57-12-26-5-35-11-32-20 3-8 1-17-5-21-6-3-11 1-11 9 0 22-28 20-84-5-33-14-70-21-124-21-42-1-82-5-88-10-7-5-24-3-40 3-29 12-28 12 25 20 30 4 60 5 68 2 7-3 13 0 13 6s7 11 16 11c8 0 12-4 9-10-3-5-2-10 4-10 5 0 13 4 16 10 3 5 16 10 28 10 13 0 40 9 62 20 21 11 41 18 44 15 7-8 41 26 41 41 0 7-8 18-17 23-11 6-13 11-5 11 7 0 24-11 38-25 27-27 44-25 44 6 0 10 7 19 15 19s15-7 15-15c0-17 9-19 29-6 7 5 10 14 7 20-4 6-3 11 2 11 6 0 12-7 16-15 6-17 32-20 41-4 4 6-1 16-11 23-10 8-14 18-9 26s4 11-2 7-16-1-22 7c-14 16 11 41 58 57 26 9 35 8 49-3 9-8 24-17 32-20 12-4 16-18 15-49-1-35 3-47 19-56 27-16 56-16 57 0 1 6 3 21 5 32 12 64 14 122 5 135s-12 13-27-2c-16-16-16-18-1-24 28-10 19-21-13-16s-37 11-19 29c9 9 6 12-12 11-13-1-29-5-36-10-6-5-14-5-18 2-3 5-19 10-36 10-24 0-29 4-29 23 0 15-9 28-22 35l-23 11h22c12 1 23-4 25-10 5-16 38 1 38 20 1 30 43 70 80 74 19 3 47 8 61 12 17 4 30 2 34-5 5-8 11-6 20 7 11 15 17 16 34 6 15-10 22-9 31 2 7 8 27 15 44 15 18 0 37 5 44 12 13 13 114 20 122 8 7-10 90-22 90-13-1 11-50 57-75 71-19 11-19 11 2 12 13 0 28-9 35-20s18-20 25-20 13-4 13-9 10-11 23-14c12-2 31-8 41-12 14-6 17-5 12 3-4 7-2 12 4 12s13-7 16-15c4-8 10-12 16-9 5 3 7 12 4 20s1 14 9 14c9 0 15 9 15 21 0 11 18 36 40 57l40 36-29 27-29 27h24c14 0 24-6 24-14 0-18 14-18 29 0 13 16-11 42-29 31-13-8-60 32-60 52 0 7 11 13 27 13 21 0 24-3 15-12-17-17-15-28 7-28 15 0 19 6 17 25-1 14-6 28-9 32-4 3-7 14-7 24 0 13 5 16 16 12 13-5 14 0 8 33-4 22-7 47-6 56 0 10-3 20-9 23-5 4-9 26-9 50 0 25-6 50-15 59-18 18-19 33-2 39 7 3 0 9-15 16-16 6-28 17-28 26 0 17 25 20 35 4 4-6 19-7 37-3 26 5 30 4 24-11-4-11-2-15 6-13 7 3 17-4 23-15 16-30 62-54 83-42 27 17 61 7 55-15-4-13 11-36 47-74 59-63 79-72 112-55l23 13-25 6c-14 4-28 2-32-4-11-16-21 0-13 23 3 12 13 21 22 21 25 0 9 24-29 42-43 21-54 36-39 51 14 14 14 37 1 37-5 0-10-6-10-14 0-24-21-30-27-8-4 18-9 19-40 10-30-8-40-6-72 16-20 14-42 26-49 26s-12 9-12 20c0 13 7 20 20 20 26 0 25 10-3 37l-24 22-26-25c-26-24-57-24-57 2 0 8-6 11-15 8-10-4-18 3-25 20-10 26-10 26-29 9-10-10-21-25-24-33s-4 4-3 26c3 37 1 41-17 36-14-3-18-1-13 6 4 7 12 12 17 12s20 9 32 21c19 17 23 18 25 5 2-9 12-16 22-16 15 0 18 7 17 33-2 32-4 34-37 33-26-1-37-7-45-23-5-13-13-23-17-23-5 0-8-7-8-15s-7-15-15-15c-22 0-18 38 5 45 11 3 20 15 20 26s7 19 17 19c13 0 14 3 5 12-17 17-15 33 3 18 25-21 29-4 5 20-18 18-26 20-51 11-29-10-52 2-24 13 35 13 9 22-70 25-87 2-117-12-50-25 36-6 49-24 18-24-13 0-6-11 23-42 66-70 72-86 13-33-31 28-71 62-90 77-29 22-32 29-23 44 7 12 31 23 64 29l54 10-26 17c-14 10-58 28-97 42s-81 32-93 40c-28 20-42 20-34 1 4-13 2-14-14-5-11 6-20 15-20 20 0 6-15 19-32 30-18 11-31 20-28 20 11 0 97-29 132-44 49-21 58-20 58 4 0 13 12 25 36 35 42 17 68 20 59 5-3-5-14-10-24-10s-25-8-35-18c-15-18-15-20 1-33 44-35 58-38 84-15 30 26 75 103 66 112-4 4-15-4-25-16-14-17-24-21-38-16-17 7-16 10 14 37 34 30 60 37 79 18 5-5 46-12 89-14 44-2 95-9 114-14 26-8 37-8 48 2 11 11-1 26-70 88-46 42-105 91-133 109-27 19-62 45-77 59-16 14-28 20-28 13 0-6 5-14 10-17 28-17-19-45-77-45-35 0-36 1-17 15 10 8 27 15 36 15s19 4 23 10c9 15-51 40-98 40-30 0-47 5-50 15-7 16 8 29 23 20 6-3 10-4 10-2 0 16-98 67-127 67-19 0-53 9-75 20-23 11-52 20-65 20s-40 7-61 16c-79 34-195 73-204 68-16-10 14-34 43-34 16 0 29-4 29-9 0-19-20-21-57-6-32 14-39 14-48 2-19-26-74-48-94-38-10 6-41 8-70 6-32-2-49 0-45 6 9 15-26 49-50 49h-20l20 15c18 12 26 12 47 2 14-7 28-20 31-29 3-15 16-18 67-18 62 0 99 17 99 45 0 21-41 55-68 56-60 1-135 1-177-2-39-2-45-5-50-31-4-15-11-30-16-33-5-4-9-20-9-37 0-25-3-29-20-25-13 3-20 0-20-10 0-9 6-12 18-9 12 4 22-3 34-24 9-17 13-30 8-30-6 0-10 5-10 10 0 6-7 10-15 10s-15-4-15-10c0-19-22-10-27 10l-6 21-19-21c-10-11-25-20-32-20-8 0-33-16-56-35-61-51-80-47-35 7 27 32 30 44 15 53-5 3-7 12-4 20 6 16-16 75-28 75-5 0-8-11-8-25s5-25 12-25c6 0 9-3 6-6s-15 0-26 7c-17 10-24 8-55-21-20-18-38-44-40-59-4-25-4-25-12 7-4 18-11 35-16 38-11 6-79-25-79-37 0-5-4-9-10-9-15 0-12 17 6 35 9 9 14 18 11 21-6 7-47-27-47-39 0-16 30-38 41-31 8 5 9 3 4-5-4-7 3-23 16-38 24-26 16-24-31 7-40 26-102 41-117 29-7-6-11-15-8-19s-11-11-31-14c-23-5-38-14-43-29-9-23-41-56-41-43 0 4 5 16 11 27 8 17 7 23-7 34-10 7-24 11-31 8-16-6-17 23-2 33 6 3 15 1 19-6 6-9 12-9 29-1 29 16 27 25-4 17-16-4-25-2-25 5 0 6-7 8-15 5s-23-9-32-13c-12-5-15-2-10 10 3 8-1 21-9 28-10 8-11 15-4 24 12 15 3 25-22 25-11 0-16 5-13 10 12 19 45 10 57-15 13-28 19-30 37-12 10 10 16 8 31-10 10-13 29-23 44-23 28 0 47 20 19 21-10 0 4 9 31 20 44 18 51 18 58 5 12-22 25-20 31 5 4 16 10 19 28 14 17-6 21-4 16 9-9 22 10 30 22 9 9-17 12-16 40 11 17 17 31 26 31 22 0-14 59 28 63 46 4 14 15 18 47 18h42l-6 35c-10 52 4 64 25 23 12-23 30-40 51-47zm-532 59c0-5-6-10-14-10s-18 5-21 10c-3 6 3 10 14 10 12 0 21-4 21-10zm57-17c-9-9-20-13-24-9s-1 11 7 16c25 16 35 11 17-7zm103-13c0-5-5-10-11-10-5 0-7 5-4 10 3 6 8 10 11 10 2 0 4-4 4-10zm-465-118c-3-3-11 0-18 7-9 10-8 11 6 5 10-3 15-9 12-12zm285-32c0-5-5-10-11-10-5 0-7 5-4 10 3 6 8 10 11 10 2 0 4-4 4-10zm50-30c0-5-4-10-10-10-5 0-10 5-10 10 0 6 5 10 10 10 6 0 10-4 10-10zm-175-20c3-5-1-10-10-10s-13 5-10 10c3 6 8 10 10 10s7-4 10-10zm1005-30c0-5-2-10-4-10-3 0-8 5-11 10-3 6-1 10 4 10 6 0 11-4 11-10zm96-17c-7-7-26 7-26 19 0 6 6 6 15-2 9-7 13-15 11-17zm-49 11c-3-3-12-4-19-1-8 3-5 6 6 6 11 1 17-2 13-5zm83-14c0-5-4-10-10-10-5 0-10 5-10 10 0 6 5 10 10 10 6 0 10-4 10-10zm-1510-9c0-5-7-12-16-15-24-9-28-7-14 9 14 17 30 20 30 6zm1245-11c3-5-1-10-9-10-9 0-16 5-16 10 0 6 4 10 9 10 6 0 13-4 16-10zm185-5c16-8 33-23 39-32 9-16 11-16 32 2l22 20-12-22c-8-17-9-29-1-43 7-14 8-26 0-39-5-11-10-29-10-41s-4-19-10-15c-5 3-6 13-3 22 5 13 2 15-11 10-70-27-96-11-40 24l36 22-29 23c-15 13-40 23-54 24-14 0-34 9-44 20-17 19-17 20 6 29 34 14 46 13 79-4zm-1215-5c3-5 1-10-4-10-6 0-11 5-11 10 0 6 2 10 4 10 3 0 8-4 11-10zm1445 1c0-5-7-14-15-21-12-10-15-10-15 2 0 8 3 18 7 21 9 10 23 9 23-2zm-1230-17c0-8-5-12-10-9-6 4-8 11-5 16 9 14 15 11 15-7zm430 2c0-3-4-8-10-11-5-3-10-1-10 4 0 6 5 11 10 11 6 0 10-2 10-4zm360-6c0-6-10-14-22-19-13-5-32-18-42-30-19-21-19-22 2-41 12-11 34-25 48-31 21-7 25-12 15-22-8-8-14-8-19-1-4 5-26 16-50 24-46 14-67 33-58 49 8 12 108 81 119 81 4 0 7-5 7-10zm-288-37c-26-10-53-46-42-57 8-8 13-7 19 2 9 15 53 8 83-13 16-10 13-14-22-34l-40-22-30 21c-18 13-37 19-49 15-17-5-21 0-27 29-3 20-12 36-19 36-8 0-11 8-8 20 7 25 24 25 56 0l26-20 17 30c17 27 20 29 34 14 12-13 12-17 2-21zm348 16c0-11-4-17-10-14-5 3-10 13-10 21s5 14 10 14c6 0 10-9 10-21zm-813-11c-3-8-6-5-6 6-1 11 2 17 5 13 3-3 4-12 1-19zm588 12c3-5-1-10-9-10-9 0-16 5-16 10 0 6 4 10 9 10 6 0 13-4 16-10zm-665-19c0-5 3-18 6-28 6-16 5-16-9 2-19 23-21 35-7 35 6 0 10-4 10-9zm610-11c0-5-4-10-10-10-5 0-10 5-10 10 0 6 5 10 10 10 6 0 10-4 10-10zm882-2c-26-26-14-38 23-22 19 7 59 14 89 14 60 0 63-7 28-55-14-19-14-19-8 6 4 20 2 28-12 31-23 6-113-22-106-33 7-12-30-46-44-41-7 2-17 13-23 24-9 17-6 26 22 54 18 19 35 34 38 34s0-5-7-12zm-1528-13c-4-8-11-15-16-15-6 0-5 6 2 15 7 8 14 15 16 15s1-7-2-15zm126-16c0-5 10-23 21-38 12-16 18-34 14-40-4-7-1-19 6-27 6-8 9-17 6-20-7-8-30 35-31 61-1 11-11 24-24 30-12 6-20 16-17 23 3 8 5 18 5 23 0 6 5 7 10 4 6-3 10-11 10-16zm238-4c23 4 22 3-7-10-38-18-45-16-34 11 4 11 8 13 11 6 2-7 14-10 30-7zm-158-5c0-5-4-10-10-10-5 0-10 5-10 10 0 6 5 10 10 10 6 0 10-4 10-10zm239-22c9-25 3-45-9-31-14 15-22 53-10 53 6 0 14-10 19-22zm577-12c1-1 5-11 8-23 9-27-17-33-32-8-7 14-12 14-41-1-32-16-48-14-37 5 4 6 13 8 20 5 8-3 16 4 19 16 4 17 10 20 34 14 15-4 29-7 29-8zm419-34c-7-8-35 7-35 18 0 6 7 6 20-2 10-7 17-14 15-16zm-550-2c3-5 1-10-4-10-6 0-11 5-11 10 0 6 2 10 4 10 3 0 8-4 11-10zm-325-20c0-5-4-10-10-10-5 0-10 5-10 10 0 6 5 10 10 10 6 0 10-4 10-10zm1146-34c-7-21-16-35-18-30-6 10 20 79 27 72 2-2-2-21-9-42zm-1476 13c0-5-4-9-10-9-5 0-10 7-10 16 0 8 5 12 10 9 6-3 10-10 10-16zm1550 1c0-11-4-20-9-20s-7 9-4 20 7 20 9 20 4-9 4-20zm-696-5c3-8 3-15 0-15s-12 7-20 15c-13 13-13 15-1 15 8 0 17-7 21-15zm-892-27c-7-7-12-8-12-2 0 14 12 26 19 19 2-3-1-11-7-17zm333 12c3-5 3-15-1-21-6-11-23 6-24 24 0 10 18 9 25-3zm510 0c18-8 17-9-7-9-16-1-28 4-28 9 0 12 8 12 35 0zm155-10c0-5-4-10-10-10-5 0-10 5-10 10 0 6 5 10 10 10 6 0 10-4 10-10zm95 0c3-5-1-10-10-10s-13 5-10 10c3 6 8 10 10 10s7-4 10-10zm138-50c45-28 22-24-38 6-33 16-41 23-22 19 15-3 42-14 60-25zm1157 5c0-8-7-15-15-15-16 0-20 12-8 23 11 12 23 8 23-8zm-2490-40c0-8-4-15-10-15-5 0-10 7-10 15s5 15 10 15c6 0 10-7 10-15zm2438-127c12-12-1-38-19-38-11 0-39 29-39 41 0 13 44 11 58-3zm-108-68c0-5-2-10-4-10-3 0-8 5-11 10-3 6-1 10 4 10 6 0 11-4 11-10zm-535-61c-4-6-10-8-13-5s-11 1-19-5c-13-11-19 2-6 14 11 11 45 8 38-4zm56-29c5 0 9-7 9-16 0-13-6-15-27-9-34 8-37 11-28 25 4 6 14 9 22 6s19-6 24-6zm-1701-200c0-5-5-10-11-10-5 0-7 5-4 10 3 6 8 10 11 10 2 0 4-4 4-10zm1099-194c25-19 42-23 79-21 26 2 100 5 165 8 109 4 117 3 117-14 0-25 49-48 112-54 29-2 54-9 56-15 2-5 9-10 17-10 7 0 19-8 26-17 12-15 12-16-4-10-41 16-65 18-72 8-3-6-11-9-16-5-5 3-7 9-4 14 3 4-4 10-15 13-13 3-20 0-20-9 0-10-6-8-20 6-23 23-42 26-34 6 8-21-12-28-29-11-9 8-20 15-26 15s-11 6-11 13c0 8-11 24-24 36-20 19-32 22-77 17-196-18-199-18-224-2-29 19-56 21-73 4-9-9-12-8-12 4 0 13 34 46 51 47 3 1 20-10 38-23zm-163-15c-10-16-90-28-178-26-48 0-90 4-93 7-11 11 107 18 143 8 28-7 47-6 77 5 47 17 58 18 51 6zm64-3c0-4-12-8-26-8s-23 4-20 8c2 4 14 8 25 8 12 0 21-4 21-8zm1167-22c-4-9-11-16-18-16-6 0-8 7-5 16s6 21 6 27c0 8 3 8 11 0 7-7 9-19 6-27zm-807-6c20-12 9-21-18-13-12 3-19 9-16 14 7 11 15 11 34-1zm-105-30c11 9 19 10 23 3 4-5 31-16 61-23 44-10 55-10 62 1 6 10 9 8 9-8 0-13-6-23-12-24-30-3-64 4-77 14-8 7-22 11-33 9-10-2-18 2-18 9 0 8-4 8-15-1-13-11-18-10-30 6-8 10-14 24-14 29 0 6 6 1 14-9 12-16 17-17 30-6zm-580-27c11-25 12-40 5-47s-10-6-10 2c0 7-7 12-15 12-11 0-13 8-8 31 5 28 4 30-13 21-24-12-54-4-33 9 32 20 58 10 74-28zm65-18c0-5 7-2 15 9 8 10 28 20 45 22 28 3 30 1 30-29 0-25-6-35-28-45-17-8-28-9-30-2-2 6-8 8-13 4-12-7-12-25 0-21 5 1 11-2 13-8 1-5-11-11-27-12-29-1-31 1-27 33 3 21-2 44-12 59-23 34-9 55 15 24 10-13 19-28 19-34zm-166 21c-3-8-16-13-30-12-28 1-32 12-6 19 32 9 41 7 36-7zm451-2c8 3 17 1 20-4s12-7 19-4c8 3 17 1 21-5 3-6-1-11-9-11-19 0-20-5-6-31 14-25 41-24 73 1 28 22 57 18 55-8-4-57 7-64 52-30 33 24 38 38 15 38-8 0-15 7-15 16 0 13 6 15 27 9 15-3 31-11 34-16 3-6 18-7 34-3 20 5 26 4 21-5-4-6-16-11-28-11-11 0-34-8-51-17-59-33-61-35-36-53 22-18 19-40-6-40-7 0-29 19-49 41-30 36-39 41-63 35-15-4-50-11-78-15-27-4-60-12-72-19-23-13-42-54-27-59 21-8 38-22 32-28-4-4-20 1-36 10-39 23-77 13-97-25-18-35-15-34-51-15-19 10-42 13-64 9-28-5-33-4-23 6 6 7 26 14 44 16s35 6 37 9c3 3 10-2 16-10 9-13 16-11 46 17 19 18 38 31 43 30 4-1 7 2 7 7 0 4 18 21 40 36 41 28 44 47 7 44-54-4-64 1-71 31-8 41-7 45 3 45 5 0 12 3 16 7s20 4 36 1c19-3 29-1 29 6 0 9 5 9 21 1 11-7 27-9 34-6zm125-14c0-5-7-10-16-10-8 0-12 5-9 10 3 6 10 10 16 10 5 0 9-4 9-10zm-647-33c-2-4-11-3-19 4-12 10-12 14-2 20 13 9 30-10 21-24zm737 23c0-5-4-10-10-10-5 0-10 5-10 10 0 6 5 10 10 10 6 0 10-4 10-10zm578-15c-3-3-9 2-12 12-6 14-5 15 5 6 7-7 10-15 7-18zm-1377 2c-6-8-8-17-5-20 4-3 4-14 0-23-6-16-7-16-20 1-12 16-14 16-44 1-18-9-32-14-32-11 0 4-7-1-17-10-14-14-14-18-2-25 11-7 11-12 1-22s-18-6-9 5c1 2-4 11-11 19-10 13-9 20 8 39 14 17 22 21 28 12 5-9 16-4 37 17 30 29 89 44 66 17zm1049-6c3-1-1-5-8-9-16-11-74-3-66 9 4 7 29 7 74 0zm-635-11c3-5 1-10-4-10-6 0-11 5-11 10 0 6 2 10 4 10 3 0 8-4 11-10zm695 6c0-3-4-8-10-11-5-3-10-1-10 4 0 6 5 11 10 11 6 0 10-2 10-4zm-1012-59c-5-32-25-31-25 2 0 21 4 28 14 24 8-3 13-15 11-26zm304-9c-3-14-2-19 6-14 7 4 12 2 12-4 0-20-32-6-41 18-7 18-5 22 10 22s18-5 13-22zm-563-3c2-3-5-8-15-11-10-4-35-20-56-36-20-15-43-26-51-22-8 3-18 0-23-7-5-9-2-10 9-6 28 11 19-7-23-48-34-33-42-37-50-25-12 19-13 30-1 30 5 0 11 11 13 25 3 14 2 25-1 25s-12 9-19 20c-11 18-10 19 14 8 23-11 28-9 45 12 10 14 19 30 19 37 0 8 20 10 67 7 37-3 69-7 72-9zm191-30c-7-8-17-15-22-15s-2 7 6 16c9 8 17 23 17 32 1 15 2 15 6-1 3-10-1-24-7-32zm-60 25c0-5-5-10-11-10-5 0-7 5-4 10 3 6 8 10 11 10 2 0 4-4 4-10zm290 0c0-5-5-10-11-10-5 0-7 5-4 10 3 6 8 10 11 10 2 0 4-4 4-10zm-320-21c0-5-4-9-10-9-5 0-10 7-10 16 0 8 5 12 10 9 6-3 10-10 10-16zm-90-4c0-8-7-15-15-15-16 0-20 12-8 23 11 12 23 8 23-8zm-246-50c0-16-5-30-12-33-8-2-12 9-12 33s4 35 12 33c7-3 12-17 12-33zm271 1c15-8 21-17 15-25-6-10-12-10-28-2-11 6-32 11-46 11-20 0-26 5-26 21 0 18 4 20 31 14 17-4 41-12 54-19zm122-70c-13-19-13-24 4-45s23-22 44-13c20 9 23 9 19-3-5-11 2-13 28-11 56 5 78 17 85 45s32 53 46 44c5-3 1-13-8-23-8-9-13-23-11-31 3-8-5-21-17-30-26-19-177-59-177-47 0 4-5 8-11 8-5 0-8-4-5-9s-16-14-42-21c-109-29-128-30-124-5 7 42 33 85 52 85 13 0 20 7 20 19 0 10 7 21 15 24 25 10 25-8-1-36-23-25-24-29-10-43 9-8 16-20 16-26s11-3 25 6c13 9 31 16 40 16 24 0 18 27-15 60-33 34-37 42-16 34 8-3 20 3 27 15 7 11 17 17 22 14 4-2 2-15-6-27zm-497 14c0-5-2-10-4-10-3 0-8 5-11 10-3 6-1 10 4 10 6 0 11-4 11-10zm57 4c-3-3-12-4-19-1-8 3-5 6 6 6 11 1 17-2 13-5zm-230-26c-3-8-6-5-6 6-1 11 2 17 5 13 3-3 4-12 1-19zm63-27c0-6-4-13-10-16-5-3-10 1-10 9 0 9 5 16 10 16 6 0 10-4 10-9zm230-8c-17-32-50-112-50-123 0-6-7-13-16-17-8-3-13-11-10-18 3-9-6-13-30-13-22 0-34 5-34 13s-9 17-20 20c-11 4-18 11-15 16 4 5-14 9-39 9-43 0-62 13-33 23 8 3 4 13-12 31-28 30-11 36 18 7 10-10 33-22 50-26s36-15 41-26c11-20 30-26 30-9 0 13 37 50 43 44 3-3 22 15 43 40 41 49 50 57 34 29zm-313-40c-3-10-5-4-5 12 0 17 2 24 5 18 2-7 2-21 0-30zm1438-11c111-1 211-13 193-23-26-14-118-23-118-10 0 6-5 11-11 11-5 0-7-5-3-12 5-7 2-9-9-5-9 3-18-1-21-9-3-9-12-14-19-11-6 2-22 0-34-4-13-5-25-4-28 1-4 6-14 6-26-1-15-7-24-7-34 1-8 6-22 10-32 8-10-1-24 1-32 6s-16 4-22-5c-4-7-23-18-40-24-35-12-51-35-25-35 16 0 22-15 9-23-5-3-26-7-48-8-38-4-40-3-37 24 4 33-6 34-53 6-20-12-39-19-42-15-3 3 3 9 13 12 10 4 33 17 49 29 33 24 117 55 149 55 23 0 80 19 111 37 11 6 22 8 25 3 3-4 41-8 85-8zm430-22c-3-5-11-10-16-10-6 0-7 5-4 10 3 6 11 10 16 10 6 0 7-4 4-10zm945 6c0-3-4-8-10-11-5-3-10-1-10 4 0 6 5 11 10 11 6 0 10-2 10-4zm-2379-49c-1-12-15-9-19 4-3 6 1 10 8 8 6-3 11-8 11-12zm-121-7c0-5-7-10-16-10-8 0-12 5-9 10 3 6 10 10 16 10 5 0 9-4 9-10zm117-36c-3-3-12-4-19-1-8 3-5 6 6 6 11 1 17-2 13-5zm1638-33c-3-6-11-11-17-11s-6 6 2 15c14 17 26 13 15-4zm-1080-20c-3-6-13-11-21-11s-14-4-14-9c0-15 15-21 30-11 18 11 57-8 63-30 4-14-4-19-35-24s-39-10-34-22c3-9 6-20 6-25s6-9 13-9 23-8 37-17c13-9 35-18 48-19 34-4 39-12 16-28-13-10-34-13-69-9-27 3-68 6-90 7s-41 6-43 12c-4 11 56 25 83 18l20-5-20 18c-13 12-19 28-17 46 2 15 0 27-5 27-24-1-68-57-89-112-8-21-30-24-37-4-6 15-95 30-121 20-30-11-16-23 16-13 44 12 47 4 6-17-52-27-116-34-167-17-24 8-69 17-100 19-31 3-72 7-91 9s-38 4-42 4c-5 1-8 7-8 15 0 17 24 28 36 16 5-4 24-11 42-15 25-5 32-3 32 8 0 9 10 15 28 16 56 1 62 3 73 22 7 14 19 20 37 18 15-1 40 3 55 10 38 15 67 14 67-2 0-8-11-19-25-25-36-16-31-33 8-28 17 3 36 5 40 5 4 1 7 7 6 14-3 25 14 57 30 57 9 0 48 11 86 25 39 13 71 20 73 15 2-6 13-10 25-10 20 0 20 1 5 17-16 15-15 18 15 39 32 22 44 24 32 5zm65-11c0-5-2-10-4-10-3 0-8 5-11 10-3 6-1 10 4 10 6 0 11-4 11-10zm1185 0c3-5-3-10-15-10s-18 5-15 10c3 6 10 10 15 10s12-4 15-10zm-205-4c0-3-4-8-10-11-5-3-10-1-10 4 0 6 5 11 10 11 6 0 10-2 10-4zm134-22c5-14 4-15-9-4-17 14-19 20-6 20 5 0 12-7 15-16zm-905-17c21 5 37-25 22-40-11-11-51 26-50 46 0 8 2 8 5 1s13-10 23-7zm1006-27c3-5 0-10-7-11-7 0-22-2-33-4-20-4-20-4-1 11 23 17 33 18 41 4zm-2085-43c0-16-30-18-45-3-14 14-13 15 15 13 16-1 30-6 30-10zm47 7c-3-3-12-4-19-1-8 3-5 6 6 6 11 1 17-2 13-5zm137-2c5-1 3-9-4-17s-16-13-20-10c-4 2-16-2-26-10-26-20-58-20-50 1 3 9 6 19 6 24 0 13 50 19 94 12zm651-2c-3-5-10-10-16-10-5 0-9 5-9 10 0 6 7 10 16 10 8 0 12-4 9-10zm1586-23c-8-8-11-7-11 4 0 20 13 34 18 19 3-7-1-17-7-23zm-2430-26 26-1-14-44c-10-31-19-43-29-39-8 3-14 9-14 15 0 5-12 25-26 43l-26 34 29-3c15-2 40-4 54-5zm-321-21c0-5-5-10-11-10-5 0-7 5-4 10 3 6 8 10 11 10 2 0 4-4 4-10zm2357-64c-7-15-16-21-21-16-6 6-4 15 4 25 19 23 29 18 17-9zm-2367 9c0-2-11-15-25-29-15-15-27-21-31-14-4 6 4 19 17 29 23 18 39 24 39 14zm1069-4c8-5 11-16 6-30-10-32-32-26-31 9 1 32 4 34 25 21zm-449-5c0-3-4-8-10-11-5-3-10-1-10 4 0 6 5 11 10 11 6 0 10-2 10-4zm175-17c4-6 13-8 20-5 15 6 40-19 27-28-19-12-90 23-75 37 9 10 21 8 28-4zm-75-31c22-13 40-27 40-32 0-4-11-1-25 8-13 9-40 16-59 16-34 0-52 11-39 24 12 12 44 6 83-16zm1730 2c0-5-4-10-10-10-5 0-10 5-10 10 0 6 5 10 10 10 6 0 10-4 10-10zm37 4c-3-3-12-4-19-1-8 3-5 6 6 6 11 1 17-2 13-5zm303-14c0-11-7-20-15-20s-15 9-15 20 7 20 15 20 15-9 15-20zm-1920-10c0-5-5-10-11-10-5 0-7 5-4 10 3 6 8 10 11 10 2 0 4-4 4-10zm1300-10c0-5-4-10-10-10-5 0-10 5-10 10 0 6 5 10 10 10 6 0 10-4 10-10zm-450-20c0-5-2-10-4-10-3 0-8 5-11 10-3 6-1 10 4 10 6 0 11-4 11-10zm1008-36c12-21 3-64-14-71-8-3-14-14-14-24 0-21-25-26-33-6-3 7-3 25 0 40 3 17 1 27-7 27-21 0-5 34 20 41 37 10 38 10 48-7zm-1922-39c-1-19-7-25-23-25-27 0-29 7-6 32 22 25 31 23 29-7zm1471-19c10-17 32-22 55-12 20 9 61-11 52-25-3-6-13-8-21-5-20 8-43-11-43-35 0-11-5-19-11-19s-9 7-5 15c6 18-7 19-35 4-22-11-17-31 6-22 8 3 15 0 15-6 0-10-14-15-34-12-4 1-13-3-20-8-7-6-18-4-31 5-16 12-18 17-7 32 7 9 15 25 18 35 7 19 20 23 26 7 2-6 9-6 18 0 12 7 12 12 2 22-14 14-16 38-2 38 5 0 13-6 17-14zm318-62c-6-41-5-46 10-40 9 3 13 2 10-4s-3-15 1-21c4-8 9-7 15 2 6 10 11 11 19 3s7-14-5-24-20-9-42 6c-16 10-30 19-33 19s-11 4-18 8c-7 5-25 6-40 3s-40 1-57 9l-30 13 48 1c38 1 50 5 54 19 3 13 51 47 72 51 2 1 0-20-4-45zm-649-1c-10-10-19 5-10 18 6 11 8 11 12 0 2-7 1-15-2-18zm695-16c-16-16-26 0-10 19 9 11 15 12 17 4 2-6-1-17-7-23zm-2316-37c11-1 38-12 60-25 52-32 127-67 132-61 2 2-1 13-9 25-10 17-10 23 1 33 9 8 12 9 7 1-8-14 45-93 75-112 17-10 19-15 8-21-8-5-19-4-26 2-20 16-63-6-63-32 0-16 14-28 58-47 31-14 64-26 74-25 9 0 24-8 34-19 9-10 23-19 29-19 7 0 18-7 26-16 21-26 66-44 111-46 24 0 54-5 68-11 24-10 73-18 187-33 35-4 72-1 115 10 35 8 77 18 93 21 17 2 57 11 90 20 33 8 71 15 83 15 13 0 35 9 49 20s36 20 49 20c14 0 28 9 35 21 8 17 13 19 19 8 7-10 11-10 24 1 9 7 19 10 23 6 3-3 15 2 25 11 17 15 20 15 28 3 7-12 12-12 22-2 6 6 20 12 29 12s31 13 48 29 41 31 53 34c13 4 32 13 43 22 19 15 18 15-17 9-24-4-38-2-38 4s-13 23-29 38c-27 25-28 29-13 40 16 12 16 14-2 27-11 8-16 19-12 26 12 19 69-48 63-75-5-28 7-49 22-40 6 4 9 11 6 16s12 4 32-2c20-5 55-8 76-5s53 1 69-5c23-8 36-8 50 1 11 7 29 9 40 5 18-5 20-3 15 17-4 13-7 30-7 38 0 11-3 11-15 1-13-11-18-10-29 6-18 24-13 31 25 39 24 5 36 2 53-14 28-26 41-26 60 0 8 12 28 30 45 40s31 26 31 34c0 24 19 17 32-11 11-23 9-28-11-43-18-14-20-19-9-27 18-14 66-16 90-3 11 6 27 8 36 4 13-5 11-9-12-24-28-19-28-19-7-30 12-7 19-15 17-19-14-23 23-38 102-41 6-1 12-6 12-13 0-6 7-20 16-30 16-16 15-18 0-24-10-4-14-13-11-24 5-15 2-17-15-13-15 4-18 9-11 16 19 19-7 45-51 52-24 4-51 16-61 26-10 11-27 19-37 19-11 0-20 7-20 15 0 30-16 14-27-27-10-38-9-45 8-64 23-24 12-39-21-29-21 7-24-2-22-52 1-16-5-23-18-23-10 0-22 5-25 11-9 14-50-24-66-63-7-18-15-26-21-20-11 11 7 52 23 52 5 0 13 8 16 18 4 9 16 25 28 34 17 15 17 17 4 18-9 0-19-7-23-15-3-9-17-15-33-14-15 0-22 3-15 6 6 2 12 11 12 20 0 24-57-23-80-65-24-45-65-92-80-92-19 0-70-40-70-55 0-8-11-22-25-31s-34-36-44-59c-17-39-23-43-64-49-25-4-62-18-82-32-20-13-43-24-53-24-19 0 40 43 76 54 12 4 22 11 22 16 0 4 9 6 20 3 21-6 60 21 60 40 0 5 19 31 43 58 64 72 68 77 57 84-13 8-13 25 1 25 5 0 7-5 3-12-5-8-2-9 10-5 10 4 21 7 26 7 4 0 7 8 6 18 0 10 5 16 13 14s21 0 30 3c13 5 13 7 1 15-13 8-12 11 4 23 13 10 15 16 8 21-9 5-8 17 4 44 30 70 30 69 11 53-20-16-27-12-30 18-1 11-4 21-8 21-11 0-17-64-7-71 5-3 2-11-6-18-23-19-38-4-31 30 5 22 3 29-9 29-9 0-16-6-16-12-1-15-49-53-57-44-3 3-14 1-25-5-15-8-17-13-7-25 16-19 24-18 53 11 35 35 42 31 13-7-29-39-43-78-28-78 6 0 11-7 11-15 0-33-41-12-47 24-3 25-23 37-33 21-14-23-23-4-22 45 2 30-2 45-10 45-22 0-41-17-34-29 4-6 0-14-8-17-9-3-16-12-16-20s-6-14-14-14c-16 0-28-37-15-46 14-8 11-25-3-22-16 3-81-23-90-36-5-7-8-4-8 7 0 23-17 22-25-2-9-30-34-46-47-33-14 14-48-12-48-35 0-10-6-12-20-8s-27-1-43-19c-16-17-27-22-34-15s-14 5-23-6c-7-8-21-15-31-15s-30-11-45-25-33-25-41-25c-7 0-16-7-20-16-3-9-13-14-24-11s-19 0-20-6c0-7-23-27-50-45-40-26-53-31-65-21-11 9-17 9-29-1-23-19-18-31 13-25 22 5 24 4 10-5-10-6-24-10-30-8-7 1-23-3-35-10-19-11-22-10-17 3 4 8 11 15 17 15s8 2 5 5-28-6-56-20c-27-14-54-25-60-25-5 0-15-6-21-14-6-7-22-11-35-9-13 3-36-2-52-10-30-16-84-12-84 5 0 6 7 7 16 4 16-6 64 20 64 35 0 5-20 9-45 9-37 0-47-4-53-21-8-20-9-20-26-4-15 15-22 16-54 6-20-7-48-11-61-9-14 2-26-3-29-11-3-10 1-12 16-9 12 4 26 0 33-8 9-11 8-14-2-15-8 0-35-4-60-8-26-4-57-3-70 1-23 9-24 10-5 24 11 8 14 14 8 14-7 0-12 7-12 15s5 15 11 15 17 6 24 14c10 10 26 11 65 5 48-7 54-6 75 16 26 29 37 32 28 9-5-15 1-16 46-12 29 3 57 12 62 19 7 12 10 12 18 1 7-11 21-10 76 7 37 12 84 23 104 26 64 8 161 33 176 45 8 7 20 10 27 7 8-3 1-9-15-16-16-6-25-15-22-21 4-7 14-6 28 1 37 19 49 32 38 39-6 3 34 25 89 49 54 24 101 50 104 57s31 21 63 30 69 26 83 38c14 13 48 37 75 54 64 40 135 95 135 104 0 11-14 10-62-6-24-8-59-17-78-21s-45-18-58-33c-16-19-21-21-16-8 6 17 4 18-17 12-13-4-53-11-89-17-36-5-88-16-117-24-28-8-64-15-79-15s-53-5-83-11c-44-10-87-9-206 3-145 15-153 17-241 62-51 26-97 53-104 61-6 7-24 17-40 20-16 4-48 24-72 46-24 21-48 39-54 39-5 0-23 14-39 30-16 17-39 30-52 30-16 0-23 6-23 20 0 11-4 20-10 20-5 0-14 10-21 21-8 16-8 23 1 29 9 5 9 9 1 14-6 4-11 2-11-3 0-6-6-11-14-11-15 0-20 11-31 70l-7 35 24-32c13-18 32-33 43-33zm1555 40c12-8 9-10-13-10-16 0-26 4-22 10 8 12 16 12 35 0zm796-17c-10-10-19 5-10 18 6 11 8 11 12 0 2-7 1-15-2-18zm-562-4c-6-11-24-2-24 11 0 5 7 7 15 4 8-4 12-10 9-15zm36 11c0-5-2-10-4-10-3 0-8 5-11 10-3 6-1 10 4 10 6 0 11-4 11-10zm-142-21c-2-6-8-10-13-10s-11 4-13 10 4 11 13 11 15-5 13-11zm-98-14c0-8-7-15-15-15-16 0-20 12-8 23 11 12 23 8 23-8zm-425-15c3-5 1-10-4-10-6 0-11 5-11 10 0 6 2 10 4 10 3 0 8-4 11-10zm315-32c0-13-23-5-28 10-2 7 2 10 12 6 9-3 16-11 16-16zm-86-20c-1-13-3-23-4-23-8 0-6-51 2-56 6-4 7-12 3-19-5-8-12-7-25 5-18 16-17 37 5 103 7 21 22 13 19-10zm946 15c0-5-11-8-25-8s-25 3-25 8c0 4 11 7 25 7s25-3 25-7zm-2015-33c20 0 19-16-1-24-9-4-17-5-18-4-1 2-12 16-26 32l-25 30 27-17c15-9 34-17 43-17zm1375 26c0-3-4-8-10-11-5-3-10-1-10 4 0 6 5 11 10 11 6 0 10-2 10-4zm65-44c-3-3-13 2-23 11-15 16-15 19-2 27 11 7 17 4 23-12 4-11 5-23 2-26zm-429 2c2-12-3-27-10-33-15-13-46-5-46 12 0 6-11 0-25-13-21-19-22-26-12-44 6-11 12-33 13-48 1-21-1-24-11-15-7 7-10 17-8 24 7 19-39 72-63 72-11 1-31 12-44 26-27 28-26 28 17 16 23-7 37-5 52 6 12 8 25 12 29 9 5-3 22-1 38 4 44 13 67 8 70-16zm-741-64c-4-6-13-10-22-10-12 0-13 3-4 13 8 11 6 18-9 32-11 10-20 23-20 29s14-4 31-22c16-18 27-37 24-42zm875 59c0-6 10-19 22-28 12-11 18-23 14-30-10-15-36 4-36 25 0 8-7 14-15 14-16 0-20 12-8 23 10 11 23 8 23-4zm-1470-6c0-2-4-12-9-22-10-18-59-23-52-5 2 5 5 14 7 19 4 10 54 17 54 8zm825-33c3-5-1-10-9-10-9 0-16 5-16 10 0 6 4 10 9 10 6 0 13-4 16-10zm185 0c0-11-42-31-49-24-2 2 2 10 9 19 14 17 40 20 40 5zm-660-16c0-2-9-4-21-4-11 0-18 4-14 10 5 8 35 3 35-6zm414-5c-8-14-24-10-24 6 0 9 6 12 15 9 8-4 12-10 9-15zm1370 5c4-11 1-14-12-12-9 2-22-3-29-12-6-8-15-11-20-7-4 5 3 17 17 27 31 24 36 24 44 4zm-988-31c-4-4-11-1-16 7-16 25-11 35 7 17 9-9 13-20 9-24zm-659 21c-3-3-12-4-19-1-8 3-5 6 6 6 11 1 17-2 13-5zm963-26c0-5-7-3-15 6-8 8-15 18-15 22 0 3 7 1 15-6s15-17 15-22zm760-12c0-8 8-17 17-20 27-11-4-26-38-19-21 4-28 1-32-13-4-16-5-15-6 4-1 12-7 22-16 22-8 0-15 5-15 10 0 7 6 7 19 1 14-8 23-6 36 9 21 23 35 26 35 6zm-1310-6c0-5-4-10-10-10-5 0-10 5-10 10 0 6 5 10 10 10 6 0 10-4 10-10zm-460-39c0-6-4-13-10-16-5-3-10 1-10 9 0 9 5 16 10 16 6 0 10-4 10-9zm400-21c0-5-5-10-11-10-5 0-7 5-4 10 3 6 8 10 11 10 2 0 4-4 4-10zm860-34c0-3-4-8-10-11-5-3-10-1-10 4 0 6 5 11 10 11 6 0 10-2 10-4zm180-6c0-5-4-10-10-10-5 0-10 5-10 10 0 6 5 10 10 10 6 0 10-4 10-10zm-340-4c0-3-5-17-10-31-9-23-12-25-25-11-18 18-19 33-2 39 16 7 37 8 37 3zm432-28c-7-7-12-8-12-2 0 14 12 26 19 19 2-3-1-11-7-17zm-267 2c3-5-1-10-10-10s-13 5-10 10c3 6 8 10 10 10s7-4 10-10zm403-20c-23-31-53-37-53-10 0 8 11 16 25 18s29 8 35 13c18 18 15 9-7-21zm-518-32c-27-22-52-24-44-3 4 8 12 15 20 15s14 7 14 16c0 14 2 14 16 3 15-12 14-15-6-31zm347-27c-10-12-8-13 12-6 20 6 22 5 16-15-7-21-5-22 21-16 23 6 25 5 16-7-9-10-7-25 8-64l19-51-28-32-27-32-17 26c-10 14-26 26-36 26s-22 8-25 18c-9 23-31 61-45 75s-14 27-1 27c6 0 10-6 10-14 0-16 27-29 35-17 2 5-2 14-10 21-21 18-18 33 5 27 19-5 24 3 21 31-1 6 3 12 9 12 5 0 9 3 9 8-3 19 2 26 11 12 6-9 5-19-3-29zm-57 25c0-2-7-7-16-10-8-3-12-2-9 4 6 10 25 14 25 6zm210-37c0-6-4-7-10-4-5 3-10 11-10 16 0 6 5 7 10 4 6-3 10-11 10-16zm-605-38c-3-6-11-8-17-5-6 4-5 9 3 15 16 10 23 4 14-10zm65 9c0-5-4-10-10-10-5 0-10 5-10 10 0 6 5 10 10 10 6 0 10-4 10-10zm65-37c-26-18-32-7-9 18 12 14 20 17 23 8 2-7-4-18-14-26zm565 33c0-3-4-8-10-11-5-3-10-1-10 4 0 6 5 11 10 11 6 0 10-2 10-4zm-2220-123c0-5-5-15-10-23-8-12-10-11-10 8 0 12 5 22 10 22 6 0 10-3 10-7zm1756-39c-4-9-9-15-11-12-3 3-3 13 1 22s9 15 11 12c3-3 3-13-1-22zm-1643-14c-3-43-18-93-30-97-6-2-16 10-21 27-6 16-8 30-5 30 4 0-4 11-17 25-18 19-20 26-9 29 8 2 21 7 29 10 34 11 55 2 53-24zm1864-19c14-18 17-61 5-61-4 0-16 16-26 35-22 41-34 40-106-5-43-27-120-50-120-36 0 4 14 21 30 39 28 29 32 30 41 15 10-18 35-24 41-10 2 4 23 17 47 29 45 22 67 21 88-6zm-1602-31c3-5 1-10-4-10-6 0-11 5-11 10 0 6 2 10 4 10 3 0 8-4 11-10zm1053-19c3-8-1-12-9-9-7 2-15 10-17 17-3 8 1 12 9 9 7-2 15-10 17-17zm-358-12c0-5-5-7-11-4-6 4-16-1-24-11-7-11-17-15-22-11-9 10 24 37 44 37 7 0 13-5 13-11zm221-32c-9-9-14-9-19-1-4 6-14 14-22 18-8 3-3 4 13 1 18-4 27-1 28 7 0 10 2 10 6 0 3-8 0-19-6-25zm335-18c-7-17-30-48-50-69-20-20-36-40-36-44 0-10 44-6 67 7 24 13 83 94 83 115 0 9 8 9 37-3 20-8 44-13 55-9 13 4 18 0 18-15 0-28-16-35-73-32-33 2-53-2-58-11-14-21-10-38 7-38 13 0 14-3 5-14-7-8-44-20-84-26-40-7-96-21-125-32s-56-17-60-13c-7 6 56 64 70 65 13 0 103 72 112 89 33 61 53 81 32 30zm-279-1c-3-8-6-5-6 6-1 11 2 17 5 13 3-3 4-12 1-19zm-927-28c0-13-7-20-20-20-25 0-27 27-2 33 9 3 18 5 20 6 1 0 2-8 2-19zm660 0c-28-22-40-25-40-10 0 6 10 15 23 20 37 15 44 11 17-10zm183-47c-7-46-4-43-31-36-24 6-25 28-1 28 8 0 15 10 17 23 2 12 7 22 12 22s6-17 3-37zm-347 18c-5-8-56-3-56 5 0 2 14 4 31 4 16 0 28-4 25-9zm117-18c-10-30-14-34-24-27-6 4-3 14 7 25 21 24 25 24 17 2zm-623 3c0-11-19-15-25-6-3 5 1 10 9 10 9 0 16-2 16-4zm345-16c-3-5-10-10-16-10-5 0-9 5-9 10 0 6 7 10 16 10 8 0 12-4 9-10zm85-90c0-5-4-10-10-10-5 0-10 5-10 10 0 6 5 10 10 10 6 0 10-4 10-10zm524-111c-8-14-24-10-24 6 0 9 6 12 15 9 8-4 12-10 9-15z"/><path d="m2015 4120c-7-12 2-30 16-30 12 0 12 27 0 35-5 3-12 1-16-5z"/><path d="m1938 4108c9-9 15-9 24 0s7 12-12 12-21-3-12-12z"/><path d="m2030 4049c0-11 5-17 10-14 6 3 10 13 10 21s-4 14-10 14c-5 0-10-9-10-21z"/><path d="m1870 4039c0-5 5-7 10-4 6 3 10 8 10 11 0 2-4 4-10 4-5 0-10-5-10-11z"/><path d="m2100 4030c0-5 5-10 10-10 6 0 10 5 10 10 0 6-4 10-10 10-5 0-10-4-10-10z"/><path d="m3585 3574c24-22 27-30 22-69-6-42-5-44 58-109 36-36 65-72 65-79 0-8 11-24 24-36 13-13 27-34 30-47 4-13 13-24 21-24 20 0 29 19 12 26-8 3-17 18-21 35-3 16-12 29-20 29s-16 14-20 34c-4 18-15 41-26 51s-35 47-53 82c-32 65-88 133-109 133-6 0 2-12 17-26z"/><path d="m3407 3555c-24-12-60-12-114-1-16 3-28-4-47-29-32-41-32-52-4-61 16-5 27-1 39 15 11 14 20 17 24 11s-1-20-11-31c-9-10-12-19-6-19s30-18 54-40 48-40 55-40c6 0 15-9 18-21 10-29 62-48 134-48 51 1 63 4 72 21 8 15 14 17 22 9 18-18 27-13 27 14 0 16-6 25-15 25-8 0-15 5-15 11 0 7-11 9-30 6-17-4-30-2-30 3 0 6 5 10 10 10 6 0 10 7 10 16 0 10-6 14-15 10-8-3-21 4-30 16l-15 22-26-25c-19-16-25-19-21-7 3 9 3 19 0 22-10 10-42-14-45-34-2-12-7-19-13-18-5 2-8 9-7 17 2 9-2 12-12 7-9-3-23-9-31-12s-15-2-15 3 30 23 68 40c64 29 67 32 69 67 3 30 0 36-17 36-21 0-27-15-10-25 12-8-8-52-27-59-36-14-43 18-13 57 11 14 20 27 20 30 0 13-30 14-53 2zm153-180c0-8-4-17-10-20-6-4-10 5-10 20s4 24 10 20c6-3 10-12 10-20z"/><path d="m3530 3510c-8-5-12-11-9-14s14 1 25 9c21 16 8 20-16 5z"/><path d="m3620 3400c0-5 5-10 11-10 5 0 7 5 4 10-3 6-8 10-11 10-2 0-4-4-4-10z"/><path d="m3686 3321c-4-5-3-17 0-26 4-10 1-21-7-26-21-12-18-69 3-69 9 0 23 8 30 19 7 10 20 20 29 22 12 3 9 13-17 47-18 23-35 38-38 33z"/><path d="m3455 3206c-3-9-7-23-10-31-2-8 0-15 5-15 6 0 10 5 10 10 0 6 7 10 15 10s15-4 15-8c0-5 19-16 43-26 23-10 54-24 69-31s29-10 32-7c11 10-17 32-50 38s-45 19-23 26c5 2-4 14-22 27-24 18-33 20-39 10-7-10-11-10-24 0-13 11-17 11-21-3z"/><path d="m3776 3203c-3-4-6-15-6-25s-9-27-20-38c-26-26-18-61 27-117 27-33 41-41 64-41 21 1 28 5 25 15-7 16 6 17 22 1 10-10 12-1 8 46-3 32-7 61-10 63-8 8-26-7-26-23 0-19-14-18-34 5-16 18-13 51 5 51 14 0 11 36-3 47-19 15-45 22-52 16zm34-37c0-2-8-10-17-17-16-13-17-12-4 4s21 21 21 13zm36-128c4-6-1-17-11-25-27-19-41-16-22 5 10 10 14 22 10 25-3 4-1 7 5 7s14-5 18-12z"/><path d="m3370 3180c0-5 7-10 15-10s15 5 15 10c0 6-7 10-15 10s-15-4-15-10z"/><path d="m3711 3171c-7-5-10-14-6-20 5-9 10-9 21 0 26 22 14 38-15 20z"/><path d="m3680 3125c7-8 17-15 22-15 6 0 5 7-2 15s-17 15-22 15c-6 0-5-7 2-15z"/><path d="m3668 3078c12-12 24-19 28-15 10 10-16 37-34 37-13 0-12-4 6-22z"/><path d="m3594 3063c4-9 1-20-6-25-10-6-10-10 2-18 23-15 45-7 48 18 2 15-2 22-12 22-9 0-16 5-16 10 0 6-5 10-11 10s-8-7-5-17z"/><path d="m3625 2940c3-5 11-10 16-10 6 0 7 5 4 10-3 6-11 10-16 10-6 0-7-4-4-10z"/><path d="m3574 2921c4-6 12-11 18-11s20-7 30-17c22-19 38-9 17 12-18 18-75 33-65 16z"/><path d="m3568 2863c6-29 22-40 33-22 13 20 11 23-14 35-21 10-23 8-19-13z"/><path d="m3492 2853c3-5 10-23 17-41 9-21 18-31 27-28 17 7 18-6 2-22-9-9-5-12 21-12 18 0 41-4 51-10 24-13 35 13 14 31-13 10-17 10-24 0-5-10-9-10-15-1-4 6-4 14-1 17 8 9 66 13 64 5-5-18 14-48 39-59 31-15 28-16 37 20 5 21 3 27-10 27-12 0-14 6-9 30 4 19 3 30-4 30-6 0-11-7-11-15s-4-15-10-15c-5 0-10 6-10 14 0 12-5 12-31-1-25-13-38-13-69-4-21 6-43 18-50 26-13 15-35 21-28 8z"/><path d="m3743 2765c5-29 2-38-17-50-13-9-30-13-39-9-10 3-17-1-20-13-4-16-5-16-6 0-1 23-18 22-30-2-8-14-7-22 4-31 8-7 15-19 15-26 0-19 19-18 26 1 6 16 26 21 22 6-2-5 2-8 7-7 6 0 9 4 8 8-2 4 10 0 25-8 31-16 72-19 72-4 0 6-5 10-11 10s-9 13-6 34c4 27 1 35-14 39-10 3-20 0-23-7-3-8-5-8-5 1-1 6 6 18 14 26 12 12 12 20 2 41-17 37-31 32-24-9z"/><path d="m3907 2793c-4-3-7-11-7-17s5-5 12 2c6 6 9 14 7 17-3 3-9 2-12-2z"/><path d="m3859 2722c6-11 19-22 30-25 16-4 18-1 12 17-5 11-18 22-30 24-20 3-21 1-12-16z"/><path d="m3962 2646c6-14 15-26 20-26 10 0-7 36-22 45-6 4-5-5 2-19z"/><path d="m3590 2615c0-8 5-15 10-15 6 0 10 7 10 15s-4 15-10 15c-5 0-10-7-10-15z"/><path d="m3840 2626c0-2 7-6 15-10 8-3 15-1 15 4 0 6-7 10-15 10s-15-2-15-4z"/><path d="m3637 2583c-40-20-28-38 24-38 36 0 44 3 44 19 0 27-35 37-68 19z"/><path d="m3720 2575c0-8 9-19 19-25 33-17 43-12 25 15s-44 34-44 10z"/><path d="m3799 2561c6-10 8-21 4-24-3-4 0-13 6-21 11-13 15-13 31 1 18 16 18 17-8 40-33 28-46 30-33 4z"/><path d="m3904 2489c-3-6-1-16 5-22 8-8 11-5 11 11 0 24-5 28-16 11z"/><path d="m3625 2470c-8-12 17-23 41-18 10 1 19 9 22 16 5 15-54 17-63 2z"/><path d="m3912 2434c-18-20 1-44 34-44 23 0 23 0 6 30-19 34-22 35-40 14z"/><path d="m3932 2365c-7-8-9-15-5-15s19-3 31-7c22-5 23-4 11 16-16 25-20 25-37 6z"/><path d="m3200 2350c0-11 4-20 9-20s7 9 4 20-7 20-9 20-4-9-4-20z"/><path d="m2815 2310c3-5 8-10 11-10 2 0 4 5 4 10 0 6-5 10-11 10-5 0-7-4-4-10z"/><path d="m2838 2300c-11-12-13-22-7-25 13-8 39 13 39 31 0 19-11 16-32-6z"/><path d="m3960 2311c0-5 7-14 15-21 16-14 18-10 9 14-6 17-24 22-24 7z"/><path d="m2770 2292c0-5 7-9 15-9s15 4 15 9c0 4-7 8-15 8s-15-4-15-8z"/><path d="m2895 2241c-3-5 2-11 10-15 8-3 17-1 20 3 3 5-2 11-10 15-8 3-17 1-20-3z"/><path d="m3220 2220c0-5 5-10 10-10 6 0 10 5 10 10 0 6-4 10-10 10-5 0-10-4-10-10z"/><path d="m3128 2116c-10-7-14-16-10-20 3-4-3-15-15-24-11-9-24-28-28-40-6-22-5-23 15-12 15 8 20 8 16 1-9-13 4-14 23-2 9 6 15 28 15 60 1 28 1 51 1 51s-8-7-17-14z"/><path d="m3176 2102c-8-13 7-28 32-35 17-4 22-2 20 10-3 17-45 37-52 25z"/><path d="m3887 2083c-4-3-7-11-7-17s5-5 12 2c6 6 9 14 7 17-3 3-9 2-12-2z"/><path d="m2945 2060c-3-5-1-10 4-10 6 0 11 5 11 10 0 6-2 10-4 10-3 0-8-4-11-10z"/><path d="m2874 2035c-11-23-10-25 35-38 25-8 49-12 54-10 18 10 3 40-29 56-45 22-47 22-60-8z"/><path d="m3780 2020c0-5 5-10 10-10 6 0 10 5 10 10 0 6-4 10-10 10-5 0-10-4-10-10z"/><path d="m3199 1814c-12-14-11-16 5-13 11 2 21 10 24 17 5 17-13 15-29-4z"/><path d="m1929 3794c-19-23 2-37 35-24 15 5 25 14 22 19-10 16-45 19-57 5z"/><path d="m3035 2850c10-11 20-18 23-15 7 6-18 35-31 35-5 0-2-9 8-20z"/><path d="m2407 2793c-10-9-9-23 2-23 5 0 11 7 15 15 5 15-5 20-17 8z"/><path d="m2630 2763c-8-3-26-10-40-16l-25-10 29-8c18-5 35-4 42 2 8 6 14 5 18-6 3-9 10-14 15-11 5 4 4 16-2 31-13 26-13 27-37 18z"/><path d="m2530 2750c-13-8-12-10 3-10 9 0 17 5 17 10 0 12-1 12-20 0z"/><path d="m2770 2750c0-5 5-10 10-10 6 0 10 5 10 10 0 6-4 10-10 10-5 0-10-4-10-10z"/><path d="m1760 2655c0-8 9-15 20-15s20 7 20 15-9 15-20 15-20-7-20-15z"/><path d="m1565 2370c-3-5-1-10 4-10 6 0 11 5 11 10 0 6-2 10-4 10-3 0-8-4-11-10z"/><path d="m2475 2360c-3-5 1-10 9-10 9 0 16 5 16 10 0 6-4 10-9 10-6 0-13-4-16-10z"/><path d="m2168 2182c-30-3-37-8-43-30-9-35 18-55 60-46 39 8 54 22 36 33-8 5-11 16-8 25 8 19 1 22-45 18z"/><path d="m3499 1697c-15-11-49-68-49-82 0-3 7-5 15-5s15-4 15-10c0-5 10-10 23-10 12 0 28-10 35-21 10-16 17-18 25-10s8 14-1 23c-7 7-12 21-12 33 0 16-2 17-9 6-7-12-15-12-33-4l-23 11 28 11c21 8 27 17 27 41 0 32-14 38-41 17z"/><path d="m1582 1664c10-10 20-15 24-12 3 4-5 12-18 18-22 12-22 12-6-6z"/><path d="m3395 1650c-3-5 1-10 9-10 9 0 16 5 16 10 0 6-4 10-9 10-6 0-13-4-16-10z"/><path d="m1560 1635c7-8 18-15 25-15 8 0 27-11 43-25 21-18 31-21 35-12 9 23-27 54-72 61-39 6-43 5-31-9z"/><path d="m3420 1590c0-12 28-25 36-17 3 3-4 10-15 17-15 7-21 7-21 0z"/><path d="m3325 1570c-3-6 1-7 9-4 18 7 21 14 7 14-6 0-13-4-16-10z"/><path d="m3371 1556c-9-10-9-16-1-21 13-8 42 14 34 26-8 13-20 11-33-5z"/><path d="m3080 1530c-8-5-12-11-10-14 8-7 60 6 60 15 0 12-31 11-50-1z"/><path d="m3170 1490c-12-8-11-10 8-10 12 0 22 5 22 10 0 13-11 13-30 0z"/><path d="m3095 1480c-7-12 2-30 16-30 5 0 9 9 9 20 0 21-15 27-25 10z"/><path d="m3335 1450c-3-5 1-10 10-10s13 5 10 10c-3 6-8 10-10 10s-7-4-10-10z"/><path d="m2148 1007c-16-6-28-16-28-23 0-13 37-13 57-1 6 4 17 5 25 2 7-3 22 1 33 9 19 15 19 15-7 16-14 0-32 2-40 4-7 2-25-1-40-7z"/><path d="m2722 1598c2-6 10-14 16-16 7-2 10 2 6 12-7 18-28 22-22 4z"/><path d="m3430 1230c0-5 9-14 20-20 23-12 26-5 6 16-17 16-26 18-26 4z"/><path d="m3486 1115c4-8 10-12 15-9 14 8 10 24-6 24-9 0-12-6-9-15z"/><path d="m1537 1066c-3-8 1-17 9-20 9-4 14 1 14 14 0 23-15 27-23 6z"/><path d="m3250 1014c0-9 5-14 12-12 18 6 21 28 4 28-9 0-16-7-16-16z"/></g></svg>